<svg width="20" height="22" viewBox="0 0 20 22" fill="none" xmlns="http://www.w3.org/2000/svg">
<path d="M11.028 10.6666L19.3411 5.89939C19.7908 5.71749 19.9335 5.76646 19.9847 6.13671V16.4621C19.8964 16.8782 19.7954 17.0674 19.5105 17.3153L11.219 21.9722C10.7824 22.0359 10.6558 21.9918 10.5743 21.6701L10.5743 11.6733C10.5476 11.1876 10.6494 10.9698 11.028 10.6666Z" fill="black"/>
<path d="M8.95636 10.6666L0.643282 5.89939C0.193543 5.71749 0.0508489 5.76646 -0.000360739 6.13671V16.4621C0.0879779 16.8782 0.188933 17.0674 0.473847 17.3153L8.76536 21.9722C9.20193 22.0359 9.32858 21.9918 9.41004 21.6701L9.41004 11.6733C9.43679 11.1876 9.33501 10.9698 8.95636 10.6666Z" fill="black"/>
<path d="M9.30744 0.128078C9.83398 -0.0418781 10.1271 -0.0435052 10.6459 0.128078L18.7599 4.75576C18.9192 4.95042 18.9312 5.05449 18.7599 5.22726L10.5314 9.89322C10.1125 10.0129 9.87204 10.0195 9.43025 9.89322L1.23095 5.22796C1.09094 5.04951 1.08843 4.94652 1.23095 4.75715L9.30744 0.128078Z" fill="black"/>
</svg>
